<?xml version="1.0" standalone="no"?>
<!DOCTYPE svg PUBLIC "-//W3C//DTD SVG 20010904//EN"
 "http://www.w3.org/TR/2001/REC-SVG-20010904/DTD/svg10.dtd">
<svg version="1.0" xmlns="http://www.w3.org/2000/svg"
 width="218.000000pt" height="218.000000pt" viewBox="0 0 218.000000 218.000000"
 preserveAspectRatio="xMidYMid meet">
<metadata>
Created by potrace 1.11, written by Peter Selinger 2001-2013
</metadata>
<g transform="translate(0.000000,218.000000) scale(0.100000,-0.100000)"
fill="#000000" stroke="none">
<path d="M245 1950 c-4 -6 -15 -8 -24 -5 -22 7 -53 -4 -45 -16 3 -5 -2 -9 -11
-9 -10 0 -13 5 -9 12 4 7 -7 2 -25 -11 -20 -15 -30 -29 -27 -38 4 -10 2 -13
-8 -10 -24 9 -34 -12 -26 -55 5 -23 4 -51 -1 -62 -8 -17 -9 -15 -5 9 3 17 3
24 0 17 -3 -6 -9 -10 -12 -8 -4 2 -6 -304 -4 -680 1 -406 6 -683 11 -679 11 6
41 -21 41 -37 0 -6 -9 0 -20 13 l-20 24 7 -34 c4 -24 3 -32 -5 -27 -8 5 -8 -1
-1 -24 6 -16 16 -33 22 -37 6 -4 7 -1 2 7 -5 9 -4 11 3 6 7 -4 12 -14 12 -22
0 -8 5 -14 11 -14 5 0 7 5 4 11 -4 6 2 13 14 16 12 3 21 9 21 14 0 5 6 9 13 9
6 -1 2 -9 -10 -19 -23 -19 -25 -58 -3 -53 7 2 17 -3 21 -10 11 -17 1762 -24
1824 -7 46 13 110 72 101 94 -3 9 0 15 9 15 17 0 20 16 5 25 -5 3 -10 1 -10
-6 0 -10 -3 -10 -12 0 -10 11 -10 14 0 18 6 3 12 12 12 21 0 15 -2 15 -10 2
-8 -13 -11 -13 -22 -1 -8 9 -9 11 -1 7 6 -3 15 -1 19 5 5 9 11 7 20 -6 12 -15
14 94 16 677 2 540 0 694 -9 691 -7 -3 -15 7 -19 21 -6 24 -24 37 -24 17 0 -5
-3 -17 -7 -27 -4 -12 -3 -15 5 -10 8 5 10 2 5 -10 -5 -15 -7 -15 -15 0 -6 10
-2 30 11 58 l19 43 7 -33 c4 -18 12 -35 16 -38 15 -9 10 15 -11 56 -18 35 -23
38 -52 35 -17 -3 -35 -10 -39 -17 -4 -7 -12 -9 -16 -4 -4 5 -2 11 5 13 7 3 18
10 25 17 7 7 19 11 27 8 9 -2 7 2 -5 11 -16 13 -21 13 -30 1 -7 -9 -15 -11
-25 -4 -13 8 -12 10 3 10 9 0 17 5 17 11 0 5 -4 8 -9 4 -5 -3 -12 -1 -16 5 -9
15 -1662 14 -1667 -2 -3 -9 -11 -8 -31 5 -31 20 -34 20 -42 7z m-15 -20 c18
-12 2 -12 -25 0 -13 6 -15 9 -5 9 8 0 22 -4 30 -9z m1730 0 c-8 -5 -22 -10
-30 -10 -13 0 -13 1 0 10 8 5 22 10 30 10 13 0 13 -1 0 -10z m-1777 -35 c15
-4 27 -11 27 -16 0 -12 -17 -11 -25 2 -4 6 -13 8 -21 5 -8 -3 -14 -1 -14 4 0
5 -8 6 -17 3 -15 -6 -16 -5 -3 9 8 9 17 12 20 8 3 -5 18 -12 33 -15z m140 18
c-7 -2 -21 -2 -30 0 -10 3 -4 5 12 5 17 0 24 -2 18 -5z m-100 -10 c-7 -2 -19
-2 -25 0 -7 3 -2 5 12 5 14 0 19 -2 13 -5z m1730 0 c-7 -2 -19 -2 -25 0 -7 3
-2 5 12 5 14 0 19 -2 13 -5z m-1700 -20 c-7 -2 -19 -2 -25 0 -7 3 -2 5 12 5
14 0 19 -2 13 -5z m1310 0 c-227 -2 -599 -2 -825 0 -227 1 -42 2 412 2 454 0
639 -1 413 -2z m-1447 -40 c-3 -3 -12 -1 -19 5 -8 7 -18 8 -22 4 -5 -4 -5 -1
-1 6 5 9 12 9 27 1 12 -6 18 -13 15 -16z m54 17 c0 -3 -9 -13 -19 -22 -18 -15
-19 -15 -23 5 -3 17 1 22 19 22 13 0 23 -2 23 -5z m1805 -1 c4 -6 18 -8 32 -4
21 5 24 3 18 -15 -4 -11 -2 -20 4 -20 7 0 11 -223 11 -704 0 -388 3 -713 7
-722 4 -10 2 -15 -3 -11 -6 3 -10 -9 -10 -29 0 -20 -6 -39 -14 -44 -11 -7 -9
-13 11 -29 26 -22 26 -22 -48 -25 -22 0 -39 2 -36 7 2 4 -4 7 -14 7 -13 0 -10
4 10 15 22 11 34 12 50 4 22 -10 22 -10 2 6 -11 9 -29 14 -40 11 -11 -3 -409
-6 -884 -6 l-864 0 -33 25 c-18 14 -37 25 -43 25 -11 0 -26 39 -17 47 3 4 6
-1 6 -10 0 -10 3 -17 8 -17 4 0 7 317 7 705 0 567 -2 704 -13 700 -33 -13 30
60 73 83 28 16 1771 17 1780 1z m90 1 c3 -6 -1 -7 -9 -4 -18 7 -21 14 -7 14 6
0 13 -4 16 -10z m-1958 -52 c-3 -8 -6 -5 -6 6 -1 11 2 17 5 13 3 -3 4 -12 1
-19z m1968 -1476 c-3 -3 -5 1 -5 9 0 12 -2 11 -11 -1 -9 -12 -10 -12 -5 3 3
10 6 24 7 30 0 7 5 1 10 -12 5 -13 7 -26 4 -29z m-1961 13 c3 -8 12 -12 21 -9
8 3 15 1 15 -4 0 -17 -37 -24 -60 -12 -17 9 -19 14 -9 26 15 18 25 18 33 -1z
m1970 -37 c-3 -4 -11 -5 -19 -1 -8 3 -15 1 -15 -5 0 -6 6 -13 13 -15 9 -4 9
-6 0 -6 -15 -1 -26 16 -18 28 3 6 14 9 25 8 10 -1 17 -5 14 -9z m-1853 -25
c-11 -5 -11 -7 0 -14 9 -6 2 -7 -17 -3 -17 3 -41 1 -53 -5 -17 -10 -20 -9 -15
4 4 9 8 14 11 11 2 -2 16 0 31 4 31 10 66 12 43 3z m-21 -33 c0 -5 8 -10 17
-10 9 0 14 -3 10 -6 -10 -10 -58 5 -52 16 8 13 25 13 25 0z"/>
<path d="M1122 1409 c-46 -14 -106 -77 -126 -134 -25 -75 -23 -306 4 -378 42
-113 150 -163 263 -123 66 24 106 77 121 159 l7 37 -40 0 c-38 0 -39 -1 -46
-42 -5 -26 -18 -53 -35 -70 -39 -39 -114 -40 -159 -3 -45 38 -55 83 -56 235 0
118 3 141 22 182 25 54 62 78 123 78 54 0 95 -38 105 -98 7 -41 8 -42 46 -42
l40 0 -7 38 c-8 46 -35 101 -61 124 -47 43 -128 58 -201 37z"/>
<path d="M310 1090 l0 -320 42 0 41 0 -6 242 c-4 133 -5 239 -2 236 5 -4 165
-466 165 -474 0 -2 13 -4 29 -4 l29 0 82 245 c45 135 83 245 86 245 2 0 1
-110 -3 -245 l-6 -245 41 0 42 0 0 321 0 320 -52 -3 -52 -3 -80 -252 c-44
-139 -82 -253 -86 -253 -3 0 -43 115 -88 255 l-83 255 -49 0 -50 0 0 -320z"/>
<path d="M1455 1393 c8 -22 126 -401 164 -528 27 -90 27 -90 62 -93 l35 -3 93
303 c52 167 96 311 99 321 4 14 -2 17 -36 17 l-40 0 -20 -67 c-11 -38 -44
-152 -73 -256 -29 -103 -56 -184 -60 -180 -3 5 -37 119 -75 256 l-69 247 -44
0 c-37 0 -42 -2 -36 -17z"/>
<path d="M2011 337 c-13 -21 -12 -21 5 -5 10 10 16 20 13 22 -3 3 -11 -5 -18
-17z"/>
<path d="M1963 273 c9 -2 23 -2 30 0 6 3 -1 5 -18 5 -16 0 -22 -2 -12 -5z"/>
<path d="M2010 270 c0 -5 5 -10 10 -10 6 0 10 5 10 10 0 6 -4 10 -10 10 -5 0
-10 -4 -10 -10z"/>
<path d="M86 342 c-3 -6 1 -13 10 -16 23 -9 28 -2 10 13 -8 7 -17 8 -20 3z"/>
</g>
</svg>
